<?xml version="1.0" standalone="no"?>
<!DOCTYPE svg PUBLIC "-//W3C//DTD SVG 20010904//EN"
 "http://www.w3.org/TR/2001/REC-SVG-20010904/DTD/svg10.dtd">
<svg version="1.0" xmlns="http://www.w3.org/2000/svg"
 width="936.000000pt" height="936.000000pt" viewBox="0 0 936.000000 936.000000"
 preserveAspectRatio="xMidYMid meet">
<metadata>
Created by potrace 1.14, written by Peter Selinger 2001-2017
</metadata>
<g transform="translate(0.000000,936.000000) scale(0.100000,-0.100000)"
fill="#000000" stroke="none">
<path d="M4996 9313 c-2 -2 -61 -4 -132 -5 -130 -2 -157 -5 -150 -17 2 -3 -10
-7 -27 -8 -17 -1 -34 -8 -39 -15 -4 -7 -8 -9 -8 -5 0 4 -10 2 -22 -5 -13 -7
-27 -11 -32 -10 -4 2 -14 -3 -22 -9 -11 -9 -14 -8 -14 2 -1 9 -5 8 -15 -5 -8
-11 -15 -15 -15 -9 0 6 -11 8 -25 5 -15 -2 -22 -9 -18 -16 4 -7 1 -6 -9 1 -8
7 -18 10 -22 6 -3 -4 -17 -8 -29 -10 -12 -2 -23 -8 -25 -13 -2 -6 -10 -10 -18
-10 -8 0 -14 -5 -14 -11 0 -5 -5 -7 -11 -4 -5 4 -19 -3 -30 -16 -10 -12 -19
-18 -19 -14 0 5 -5 4 -12 -3 -7 -7 -20 -12 -31 -12 -10 0 -15 -4 -12 -10 3 -5
1 -11 -4 -11 -6 -1 -14 -3 -18 -4 -5 -2 -18 -6 -30 -10 -13 -4 -20 -11 -17
-16 3 -5 -1 -6 -9 -3 -8 3 -21 -2 -30 -10 -8 -8 -17 -13 -20 -10 -3 4 -16 -1
-29 -10 -12 -9 -33 -16 -45 -16 -13 0 -23 -4 -23 -10 0 -5 -9 -10 -21 -10 -22
0 -78 -35 -92 -57 -4 -7 -14 -13 -21 -13 -8 0 -16 -7 -20 -15 -3 -8 -13 -15
-23 -15 -13 0 -14 -3 -5 -8 8 -6 -1 -15 -29 -30 -22 -12 -47 -22 -54 -22 -7 0
-15 -7 -19 -15 -7 -20 -40 -19 -60 1 -9 8 -16 12 -16 7 0 -4 -4 -3 -8 4 -6 10
-14 9 -34 -1 -15 -8 -29 -11 -33 -8 -3 4 -10 1 -14 -6 -4 -7 -18 -14 -29 -15
-12 -1 -22 -4 -22 -7 0 -3 -8 -6 -17 -7 -46 -5 -82 -16 -77 -24 3 -5 -13 -9
-35 -9 -26 0 -41 -5 -41 -12 0 -9 -4 -8 -10 2 -6 9 -10 10 -10 3 0 -12 -37
-29 -53 -25 -5 1 -6 -2 -3 -7 4 -5 -2 -12 -11 -15 -21 -7 -130 -106 -117 -107
5 0 -2 -5 -16 -11 -14 -6 -29 -10 -33 -9 -5 1 -6 -3 -2 -9 3 -5 2 -10 -2 -10
-5 0 -22 -12 -38 -27 -16 -16 -32 -26 -35 -23 -3 3 -7 -6 -9 -20 -1 -14 -6
-27 -10 -30 -3 -3 -12 -16 -19 -29 -11 -19 -11 -22 0 -15 7 4 3 -5 -10 -20
-12 -16 -20 -32 -17 -36 3 -4 -2 -11 -11 -14 -8 -3 -20 -19 -25 -36 -6 -16
-14 -28 -18 -26 -3 2 -11 -7 -18 -20 -8 -18 -8 -22 0 -17 7 4 6 -1 -2 -11 -13
-15 -13 -19 0 -27 8 -5 9 -9 3 -9 -7 0 -12 -18 -12 -42 -1 -161 -4 -198 -15
-191 -8 5 -8 2 0 -8 10 -12 10 -18 0 -29 -10 -10 -9 -11 2 -5 10 6 12 4 5 -6
-4 -8 -10 -23 -11 -34 -11 -88 -14 -113 -15 -137 -1 -16 -4 -28 -8 -28 -3 0
-6 -10 -7 -22 -3 -62 -9 -88 -21 -88 -6 0 -11 -3 -10 -7 2 -11 -35 -73 -44
-73 -5 0 -8 -7 -8 -15 0 -8 -4 -15 -9 -15 -5 0 -8 -16 -7 -35 1 -22 -3 -34
-10 -31 -6 2 -10 -5 -9 -17 2 -29 -15 -90 -27 -98 -5 -3 -10 -15 -11 -27 0
-11 -5 -18 -9 -16 -4 3 -8 -2 -8 -10 0 -9 -5 -16 -11 -16 -5 0 -7 -4 -4 -10 3
-5 1 -10 -4 -10 -6 0 -10 -3 -9 -7 3 -13 -13 -53 -21 -53 -4 0 -7 -10 -8 -22
-1 -11 -8 -25 -15 -29 -7 -5 -9 -9 -4 -9 5 0 3 -6 -3 -13 -6 -8 -8 -17 -4 -20
3 -4 1 -7 -5 -7 -7 0 -12 -13 -12 -30 0 -16 -4 -30 -8 -30 -5 0 -8 -13 -7 -30
1 -16 -4 -31 -11 -34 -7 -3 -10 -14 -7 -25 3 -12 1 -21 -4 -21 -5 0 -10 -11
-11 -23 -1 -13 -8 -37 -17 -53 -8 -16 -15 -37 -15 -46 0 -10 -4 -18 -10 -18
-5 0 -10 -9 -10 -20 0 -11 -4 -20 -10 -20 -5 0 -10 -9 -10 -20 0 -11 -5 -20
-11 -20 -5 0 -7 -4 -4 -10 3 -5 1 -10 -5 -10 -6 0 -9 -4 -6 -8 3 -5 -4 -19
-15 -30 -11 -12 -17 -22 -15 -22 3 0 -15 -20 -40 -45 -26 -26 -42 -50 -38 -57
4 -6 3 -8 -3 -5 -9 6 -43 -48 -43 -68 0 -3 -7 -13 -15 -22 -8 -8 -13 -19 -10
-24 4 -5 2 -9 -4 -9 -5 0 -8 -11 -6 -25 1 -14 -2 -28 -7 -31 -4 -3 -6 -10 -3
-15 4 -5 2 -9 -4 -9 -5 0 -8 -8 -6 -17 1 -10 -3 -24 -9 -32 -8 -11 -8 -13 1
-8 8 5 8 -1 -2 -19 -8 -15 -12 -31 -9 -36 3 -4 1 -8 -5 -8 -5 0 -8 -8 -7 -17
2 -10 -1 -21 -5 -24 -5 -3 -10 -17 -11 -32 -1 -15 -6 -27 -10 -27 -4 0 -7 -3
-7 -7 3 -18 -2 -34 -9 -29 -4 2 -16 -15 -27 -37 -11 -23 -27 -47 -36 -54 -9
-7 -15 -24 -14 -42 1 -17 -2 -31 -7 -31 -4 0 -7 -3 -7 -7 5 -30 -3 -83 -11
-78 -6 3 -7 -1 -4 -9 4 -10 1 -16 -7 -16 -7 0 -10 -3 -6 -6 3 -3 -7 -29 -22
-57 -22 -40 -26 -58 -21 -79 5 -16 6 -28 3 -28 -3 0 0 -7 7 -15 10 -12 10 -15
-1 -15 -9 0 -10 -3 -4 -8 12 -9 15 -142 3 -142 -5 0 -7 -4 -3 -9 3 -5 2 -12
-2 -14 -5 -3 -8 -37 -8 -75 0 -39 -3 -68 -7 -66 -5 3 -8 -2 -8 -10 0 -9 6 -16
13 -16 9 0 9 -2 0 -8 -7 -5 -14 -27 -15 -50 -1 -27 -5 -39 -12 -35 -6 4 -5 -1
3 -10 7 -9 9 -17 4 -17 -11 0 -11 -92 -1 -101 5 -3 9 -17 10 -32 1 -15 5 -27
9 -27 7 0 25 -116 21 -132 -1 -5 2 -8 6 -8 5 0 8 -22 8 -48 1 -27 4 -54 9 -62
5 -8 4 -11 -3 -6 -13 8 -27 -48 -16 -65 5 -8 3 -9 -6 -4 -8 5 -11 3 -8 -6 3
-8 1 -26 -3 -41 -4 -15 -3 -28 2 -30 5 -2 11 -19 12 -38 1 -19 5 -37 9 -40 4
-4 8 -27 9 -53 1 -26 7 -47 13 -47 6 0 4 -5 -4 -10 -13 -9 -13 -10 0 -10 13 0
13 -1 0 -10 -10 -6 -11 -10 -2 -10 6 0 12 -7 12 -15 0 -8 -6 -15 -12 -15 -10
0 -10 -2 -2 -8 14 -9 14 -74 -1 -84 -6 -5 -6 -8 2 -8 8 0 11 -13 9 -35 -1 -20
3 -43 10 -53 6 -9 15 -31 18 -49 4 -17 14 -34 21 -37 8 -3 12 -12 9 -21 -4 -8
-1 -21 5 -29 6 -7 8 -15 6 -18 -3 -3 -1 -17 4 -30 7 -18 6 -29 -2 -37 -9 -9
-8 -11 3 -6 12 4 15 -3 15 -39 0 -24 3 -42 8 -39 4 2 8 -12 8 -31 2 -45 2 -48
13 -65 7 -10 6 -12 -4 -6 -10 6 -11 4 -4 -6 4 -8 9 -20 11 -28 1 -8 6 -17 11
-20 6 -3 13 -23 17 -43 4 -21 11 -35 16 -32 8 5 14 -18 10 -40 -1 -4 2 -13 7
-20 5 -6 8 -23 7 -38 -1 -20 3 -28 14 -28 11 0 12 -3 4 -8 -8 -5 -8 -17 3 -47
7 -22 14 -54 14 -72 0 -17 5 -35 10 -38 6 -4 10 -14 9 -23 -1 -10 0 -19 1 -22
5 -14 13 -57 14 -77 1 -11 4 -19 7 -17 9 5 20 -26 13 -37 -3 -5 0 -9 5 -9 6 0
11 -6 11 -13 0 -7 9 -19 19 -27 11 -7 18 -17 16 -20 -2 -4 3 -16 13 -26 9 -10
26 -38 36 -61 11 -24 23 -43 28 -43 5 0 6 -4 3 -10 -3 -5 1 -20 10 -33 8 -13
12 -27 8 -30 -3 -4 2 -7 12 -7 10 0 16 -3 12 -6 -3 -4 7 -20 24 -36 16 -16 26
-34 23 -40 -4 -6 -3 -8 3 -5 5 3 16 -3 24 -15 8 -11 20 -26 27 -34 6 -7 12
-17 12 -23 0 -6 4 -11 8 -11 4 0 16 -14 26 -31 10 -18 26 -39 35 -49 31 -33
51 -60 51 -70 0 -5 8 -14 18 -19 9 -6 14 -11 10 -11 -4 0 1 -16 12 -36 11 -19
21 -46 22 -59 1 -13 6 -21 10 -19 4 3 8 -7 8 -21 0 -15 4 -24 10 -20 5 3 10 1
10 -6 0 -6 8 -18 18 -26 11 -10 12 -12 2 -8 -8 3 -5 -2 7 -11 13 -9 23 -22 23
-29 0 -6 9 -20 20 -30 11 -10 17 -22 13 -28 -3 -6 -1 -7 5 -3 7 4 12 1 12 -9
0 -9 5 -13 10 -10 6 3 10 -1 10 -9 0 -18 76 -93 102 -102 10 -3 16 -10 13 -15
-6 -8 8 -13 28 -10 4 0 7 -3 7 -9 0 -5 10 -20 23 -33 12 -12 23 -29 25 -37 2
-8 7 -17 11 -20 9 -6 25 -42 23 -53 -1 -4 1 -6 5 -6 21 3 33 -2 33 -16 0 -8 7
-15 15 -15 8 0 15 -7 15 -15 0 -14 12 -19 33 -16 4 0 6 -2 5 -6 -2 -5 6 -17
17 -29 18 -19 33 -36 105 -123 11 -13 20 -28 20 -33 0 -4 7 -8 17 -8 9 0 13
-3 10 -6 -4 -4 6 -18 21 -30 15 -13 23 -24 19 -24 -5 0 5 -14 21 -30 17 -17
36 -30 42 -30 6 0 8 -4 5 -10 -3 -5 -1 -10 6 -10 6 0 22 -12 35 -28 13 -15 24
-23 24 -19 0 4 10 -1 22 -13 12 -11 28 -20 35 -20 8 0 11 -4 8 -10 -3 -5 1
-10 9 -10 9 0 16 -4 16 -10 0 -5 6 -10 14 -10 8 0 21 -9 29 -20 8 -11 17 -17
20 -13 4 3 7 1 7 -5 0 -6 9 -14 20 -17 11 -3 20 -13 20 -21 0 -8 8 -18 18 -21
19 -8 48 -44 44 -56 -1 -5 2 -6 7 -3 8 5 45 -33 106 -109 9 -11 13 -13 9 -5
-4 9 1 7 14 -5 33 -31 51 -45 58 -45 4 0 31 -16 61 -36 29 -19 57 -33 62 -30
5 3 12 -1 15 -9 3 -8 9 -15 13 -14 16 2 53 -14 53 -23 0 -5 4 -6 10 -3 6 3 10
2 10 -4 0 -5 8 -8 17 -7 9 2 28 -3 42 -11 15 -7 32 -13 39 -13 7 0 11 -4 8 -9
-3 -5 6 -9 20 -9 15 0 29 -4 33 -9 3 -6 16 -9 28 -8 12 1 20 -1 18 -5 -4 -6
28 -20 93 -40 23 -7 42 -17 42 -22 0 -5 5 -6 10 -3 6 4 31 -3 56 -14 25 -12
49 -19 54 -16 5 3 11 1 15 -5 3 -5 17 -10 30 -10 13 0 27 -4 30 -10 3 -5 19
-10 34 -10 15 0 31 -3 35 -7 3 -4 28 -9 54 -11 26 -2 49 -8 50 -13 3 -6 9 -6
16 0 9 8 19 5 33 -9 12 -10 23 -17 25 -14 3 2 15 -7 28 -21 13 -14 30 -25 37
-25 8 0 11 -5 8 -10 -4 -6 -3 -10 2 -9 21 4 34 -2 27 -13 -4 -6 -3 -8 3 -5 6
4 29 0 52 -8 23 -8 45 -14 49 -14 20 1 92 -25 92 -32 0 -5 9 -9 21 -9 11 0 17
-4 14 -10 -3 -5 3 -10 15 -10 12 0 19 -4 16 -9 -4 -5 7 -12 24 -16 16 -4 28
-12 27 -18 -1 -7 3 -11 10 -10 7 2 18 -7 24 -19 7 -13 17 -28 23 -34 6 -6 20
-23 31 -38 11 -15 36 -34 55 -42 19 -9 47 -22 61 -30 14 -7 30 -10 34 -6 5 4
5 2 1 -5 -3 -7 2 -14 14 -18 11 -4 18 -11 15 -16 -4 -5 1 -9 10 -9 8 0 18 -7
21 -15 4 -8 12 -15 19 -15 7 0 23 -12 35 -27 12 -16 18 -21 14 -13 -4 8 3 5
15 -7 12 -13 26 -23 32 -23 6 0 7 -4 4 -10 -3 -5 1 -10 10 -10 8 0 18 -7 21
-15 4 -8 10 -12 15 -9 5 3 9 0 9 -7 0 -8 3 -9 13 0 8 6 16 8 20 5 3 -3 14 -1
26 5 11 6 22 7 25 2 3 -4 18 -7 33 -4 16 2 52 4 80 5 29 0 50 4 48 8 -3 5 3 7
12 5 10 -1 29 4 42 12 18 12 22 12 16 2 -3 -8 1 -5 9 5 9 11 16 16 16 10 1
-16 30 70 30 89 0 10 4 15 10 12 6 -3 7 1 4 9 -3 9 -1 16 5 16 6 0 11 8 11 18
0 9 7 25 14 35 15 19 13 78 -4 122 -6 15 -8 31 -4 36 3 5 0 9 -7 9 -7 0 -8 5
-3 13 5 6 9 33 8 60 0 28 4 47 10 47 6 0 4 5 -4 10 -10 6 -11 10 -2 10 7 0 12
13 12 33 0 18 5 38 10 43 6 6 13 30 16 55 3 24 10 45 15 47 5 2 9 17 9 33 0
16 5 29 11 29 6 0 9 7 5 15 -3 8 -1 15 5 15 6 0 7 5 4 10 -4 6 3 27 14 46 12
19 15 32 9 29 -7 -4 -5 0 5 8 10 8 19 24 20 36 1 12 5 21 9 21 4 0 8 7 8 15 0
8 6 15 13 15 13 1 89 89 89 105 0 6 4 16 10 23 6 6 7 12 3 12 -4 0 -1 8 6 17
12 15 12 16 -1 8 -12 -7 -12 -5 1 11 9 10 14 25 12 32 -3 6 0 12 5 12 9 0 22
56 25 107 0 12 4 20 8 18 3 -3 9 14 13 36 4 22 15 50 26 62 11 11 20 29 20 39
0 10 4 18 9 18 8 0 21 34 18 45 -1 3 7 11 18 19 11 8 31 35 43 60 13 25 27 48
33 51 5 4 7 11 4 16 -4 5 -3 15 2 22 4 6 9 23 11 37 5 39 8 54 16 72 4 9 5 22
1 28 -3 5 -1 10 4 10 6 0 11 7 11 16 0 9 5 12 12 8 7 -4 8 -3 4 4 -4 6 1 28
10 49 10 21 18 46 19 57 2 10 9 22 16 27 8 5 11 9 6 9 -4 0 -1 12 6 28 8 15
12 33 9 41 -3 8 0 11 7 7 6 -4 11 0 12 11 0 10 3 27 5 38 3 11 6 27 8 37 1 9
9 24 17 34 9 11 9 15 2 10 -7 -4 -13 -2 -13 3 0 6 4 11 10 11 5 0 9 10 9 23
-1 12 4 37 9 55 6 17 8 32 4 32 -4 0 -2 4 5 8 7 4 13 22 15 40 1 18 6 32 11
32 4 0 6 4 2 9 -3 5 -1 12 5 16 5 3 10 15 10 26 0 10 5 19 11 19 5 0 8 4 5 8
-3 5 2 21 10 36 7 16 14 33 14 39 0 6 8 19 18 30 9 11 11 17 4 13 -11 -7 -11
-4 0 15 7 13 16 26 19 29 4 3 8 19 10 35 2 17 8 36 14 44 8 12 7 13 -5 6 -12
-7 -13 -6 -4 6 6 8 10 30 10 51 -1 20 2 34 7 31 6 -3 10 36 6 63 0 4 4 10 10
13 6 4 12 23 13 43 2 20 6 34 9 32 3 -2 6 16 7 39 4 103 14 182 24 188 7 4 5
8 -3 11 -10 4 -11 8 -3 19 6 8 11 23 12 34 0 11 3 34 6 50 3 17 9 55 14 85 5
30 16 72 25 92 8 20 13 39 9 42 -3 3 0 6 7 6 7 0 11 7 8 15 -4 8 -1 17 4 21 6
3 9 15 6 25 -3 11 0 19 6 19 6 0 2 6 -9 14 -10 8 -16 18 -12 22 4 4 2 14 -5
22 -10 13 -9 14 2 8 10 -7 10 -3 -1 15 -13 21 -14 42 -6 106 1 7 8 15 16 18
11 4 12 8 2 20 -9 10 -9 15 -1 15 6 0 11 9 11 19 0 11 5 23 11 27 8 5 8 9 -1
14 -8 5 -9 13 -4 21 11 18 11 40 1 63 -6 12 -5 16 1 12 7 -4 11 16 11 56 0 35
0 92 1 128 1 71 -2 96 -13 106 -4 4 -2 13 4 21 6 7 7 13 2 13 -5 0 -9 16 -9
35 1 19 5 35 11 35 5 0 3 4 -5 10 -12 7 -12 12 4 28 17 19 17 21 -1 31 -10 6
-12 11 -5 11 13 0 17 46 4 54 -4 2 -7 21 -7 40 1 20 -3 36 -8 36 -5 0 -3 8 4
17 10 11 10 14 2 9 -7 -4 -13 -4 -14 1 -1 8 -6 32 -12 56 -2 6 -7 24 -12 40
-4 15 -11 27 -16 27 -5 0 -6 6 -3 14 3 8 1 17 -5 20 -6 4 -7 14 -4 23 5 12 3
14 -7 8 -10 -6 -11 -4 -4 6 4 8 9 21 10 29 2 8 4 31 7 51 2 20 8 42 11 48 4 6
2 11 -5 11 -8 0 -8 4 1 15 9 10 9 15 1 15 -6 0 -11 11 -11 25 0 14 -4 25 -10
25 -5 0 -10 9 -10 19 0 11 -4 22 -9 26 -6 3 -10 13 -10 23 -1 25 -6 56 -12 67
-3 6 -5 22 -4 37 0 15 -3 24 -7 22 -4 -3 -8 2 -8 10 0 25 -34 126 -42 126 -4
0 -8 11 -8 25 0 14 -5 25 -11 25 -5 0 -7 5 -4 10 3 6 1 10 -5 10 -6 0 -8 5 -5
10 4 6 1 17 -5 25 -7 8 -9 15 -5 15 5 0 0 9 -10 20 -11 12 -13 20 -6 20 7 0 9
5 6 10 -4 6 -11 8 -16 4 -5 -3 -9 -2 -8 3 5 27 -2 53 -13 47 -6 -4 -8 -3 -5 3
8 12 -13 83 -25 83 -4 0 -8 15 -8 33 0 19 -3 37 -7 41 -4 4 -9 26 -10 48 -3
43 -23 98 -35 98 -4 0 -17 20 -29 45 -13 25 -27 42 -33 38 -6 -3 -8 -3 -4 2 8
9 -22 65 -35 65 -4 0 -6 4 -3 8 3 5 -3 18 -13 28 -9 11 -16 24 -14 30 2 6 -3
17 -11 23 -8 7 -12 19 -9 27 3 8 0 14 -6 14 -6 0 -11 5 -11 11 0 5 5 7 10 4 6
-4 1 10 -10 30 -11 20 -15 33 -8 29 7 -4 5 2 -4 13 -10 11 -18 25 -18 32 0 7
-3 10 -7 8 -5 -3 -14 1 -21 9 -7 8 -10 14 -7 14 3 0 0 6 -7 14 -7 8 -17 11
-22 8 -5 -3 -7 2 -3 11 3 10 3 17 -2 17 -11 0 -42 47 -46 69 -1 9 -8 15 -13
14 -6 -2 -9 4 -6 12 4 10 0 15 -12 16 -11 0 -13 3 -7 6 9 3 8 11 -5 31 -9 15
-19 29 -22 32 -3 3 -16 27 -30 53 -14 26 -27 46 -30 45 -9 -5 -38 26 -33 35 2
4 -2 7 -10 7 -8 0 -31 15 -51 34 -20 19 -36 32 -36 28 -1 -4 -10 11 -22 33
-11 22 -29 47 -39 56 -10 9 -16 19 -12 23 3 3 -1 14 -11 24 -35 36 -56 66 -56
79 0 8 -4 11 -10 8 -9 -6 -14 8 -11 28 1 5 -3 6 -9 2 -5 -3 -10 -1 -10 5 0 6
-3 9 -7 7 -11 -5 -43 30 -35 38 4 4 3 5 -3 4 -17 -5 -56 12 -50 22 4 5 1 9 -4
9 -16 0 -51 33 -51 47 0 7 -3 12 -7 11 -5 -2 -35 25 -69 59 -34 35 -64 60 -68
56 -3 -3 -6 1 -6 11 0 9 -4 14 -10 11 -5 -3 -10 1 -10 9 0 9 -6 16 -13 16 -7
0 -19 9 -27 20 -8 11 -18 20 -23 20 -9 0 -30 17 -55 43 -9 9 -20 17 -25 17 -5
0 -15 6 -22 13 -34 29 -45 37 -45 31 0 -4 -12 6 -27 22 -15 16 -28 28 -30 27
-10 -9 -23 -1 -17 10 4 6 4 9 -1 5 -4 -4 -20 -1 -35 7 -15 8 -31 11 -35 7 -5
-4 -5 -1 -1 6 4 7 1 12 -8 12 -8 0 -16 5 -18 11 -2 5 -12 11 -23 13 -11 2 -25
12 -30 23 -14 26 -41 53 -55 53 -6 0 -9 4 -5 9 7 12 -29 33 -39 24 -3 -3 -6 0
-6 7 0 7 -3 10 -7 7 -3 -4 -17 0 -30 8 -13 9 -23 11 -23 5 0 -5 -5 -10 -11
-10 -5 0 -8 4 -5 9 7 11 -22 23 -35 15 -5 -3 -8 0 -7 8 2 7 -6 13 -17 13 -11
1 -19 6 -18 13 2 7 -3 12 -10 12 -7 0 -23 9 -35 20 -12 12 -22 18 -22 15 0 -3
-6 0 -14 7 -8 7 -11 17 -8 22 3 5 0 6 -7 1 -8 -4 -18 1 -27 14 -8 12 -23 21
-32 21 -15 0 -15 2 -2 10 12 7 12 10 1 10 -7 0 -26 11 -43 25 -16 14 -37 25
-47 25 -10 0 -18 7 -18 15 0 11 4 12 14 4 7 -7 13 -7 13 -2 0 8 88 17 152 15
10 0 20 3 23 9 4 5 20 9 36 9 20 0 28 4 23 12 -5 7 -3 8 7 2 19 -12 40 -14 34
-4 -3 5 3 9 12 9 41 1 59 4 68 11 6 4 20 6 33 5 12 -1 22 1 22 5 0 5 18 9 58
12 6 1 12 4 12 8 0 4 10 6 23 6 12 -1 27 1 33 6 6 4 21 10 35 12 13 3 24 5 24
6 0 2 38 11 53 12 6 1 12 5 12 10 0 4 11 8 25 8 14 0 25 5 25 11 0 5 5 7 10 4
6 -3 16 -3 23 2 6 4 18 8 26 10 8 1 18 8 22 15 5 7 9 9 9 4 0 -6 5 -5 11 1 6
6 18 9 25 6 8 -3 14 0 14 6 0 5 23 13 50 17 28 4 50 10 50 14 0 8 49 25 63 22
4 -1 7 3 7 8 0 6 7 10 15 10 8 0 15 5 15 11 0 5 4 8 9 5 5 -3 14 1 21 10 7 8
19 13 27 10 7 -3 13 -1 13 4 0 6 7 10 15 10 8 0 15 5 15 11 0 5 4 8 9 4 5 -3
12 -1 16 5 4 6 11 8 16 5 5 -4 9 -2 9 3 0 4 16 14 35 22 19 8 35 17 35 22 0 4
3 7 8 6 15 -3 42 15 35 25 -3 6 -1 7 5 3 6 -4 19 2 29 14 10 11 21 20 26 20 4
0 20 11 35 25 15 14 33 25 40 25 7 0 11 4 8 8 -3 5 12 23 33 40 41 34 44 50
23 119 -6 17 -8 34 -4 37 3 3 0 6 -6 6 -7 0 -12 7 -12 15 0 8 -4 15 -10 15 -5
0 -10 7 -10 15 0 8 -6 15 -14 15 -8 0 -16 10 -20 23 -3 13 -18 30 -33 38 -16
8 -33 21 -40 29 -9 11 -12 12 -13 2 0 -9 -9 -7 -29 7 -16 12 -38 21 -49 21
-11 0 -22 5 -24 11 -2 6 -16 12 -31 12 -15 1 -27 6 -27 10 0 4 -6 7 -12 6 -18
-3 -68 12 -68 20 0 4 -11 8 -25 9 -14 1 -36 3 -50 4 -14 1 -25 5 -25 8 0 4
-10 6 -22 5 -13 -1 -29 2 -36 8 -7 5 -15 7 -19 4 -3 -4 -12 -2 -20 4 -7 6 -13
8 -13 3 0 -5 -4 -4 -8 3 -4 7 -22 13 -39 15 -17 1 -29 6 -27 10 3 4 -2 9 -10
9 -25 2 -30 4 -43 12 -7 5 -18 5 -23 2 -6 -3 -13 1 -16 9 -3 9 -10 13 -15 10
-5 -3 -9 0 -9 7 0 7 -8 9 -21 6 -12 -3 -22 0 -26 9 -3 8 -9 11 -14 8 -5 -3 -9
0 -9 5 0 6 -7 11 -15 11 -8 0 -25 5 -38 12 -51 26 -57 28 -57 17 0 -6 -5 -7
-12 -2 -13 8 -25 11 -68 19 -14 2 -32 5 -40 7 -8 1 -21 6 -27 10 -8 5 -13 3
-13 -5 0 -10 -2 -10 -9 1 -5 7 -13 11 -19 7 -6 -3 -14 -1 -17 5 -4 5 -13 8
-21 5 -7 -3 -16 0 -20 5 -3 6 -15 9 -25 6 -11 -3 -19 0 -19 5 0 7 -5 6 -13 -1
-8 -6 -17 -8 -20 -4 -11 10 -222 24 -231 16z"/>
</g>
</svg>
